<svg xmlns="http://www.w3.org/2000/svg" viewBox="0 0 512 512" width="512" height="512">
  <defs>
    <linearGradient id="grad" x1="0%" y1="0%" x2="100%" y2="100%">
      <stop offset="0%" stop-color="#34d399" />
      <stop offset="50%" stop-color="#10b981" />
      <stop offset="100%" stop-color="#06b6d4" />
    </linearGradient>
    <filter id="glow" x="-20%" y="-20%" width="140%" height="140%">
      <feGaussianBlur stdDeviation="15" result="blur" />
      <feComposite in="SourceGraphic" in2="blur" operator="over" />
    </filter>
  </defs>
  <rect width="512" height="512" rx="128" fill="#031427" />
  <g transform="translate(64, 64)" filter="url(#glow)">
    <!-- Outer looping arrows representing Industrial Symbiosis -->
    <path d="M 192 32 C 280.37 32 352 103.63 352 192 C 352 230.12 338.65 265.12 316.5 292.5 L 352 328 L 256 328 L 256 232 L 292.5 268.5 C 309.5 247.5 320 221 320 192 C 320 121.3 262.7 64 192 64 C 121.3 64 64 121.3 64 192 C 64 262.7 121.3 320 192 320 L 192 352 C 103.63 352 32 280.37 32 192 C 32 103.63 103.63 32 192 32 Z" fill="url(#grad)" />
    <!-- AI Spark in the center -->
    <path d="M 192 112 L 208 176 L 272 192 L 208 208 L 192 272 L 176 208 L 112 192 L 176 176 Z" fill="#ffffff" />
  </g>
</svg>
